<svg width="152" height="162" viewBox="0 0 152 162" fill="none" xmlns="http://www.w3.org/2000/svg">
<mask id="path-1-outside-1_41_6" maskUnits="userSpaceOnUse" x="0" y="-0.000236511" width="152" height="162" fill="black">
<rect fill="white" y="-0.000236511" width="152" height="162"/>
<path d="M55.6828 7.05876C54.5782 7.50419 54.0258 7.7269 53.6724 8.17086C53.319 8.61483 53.2257 9.20322 53.0391 10.38L51.3355 21.122C50.309 27.5944 49.7958 30.8306 47.4244 32.2003C45.0531 33.5699 41.995 32.3965 35.8789 30.0496L25.7282 26.1546C24.6162 25.7279 24.0602 25.5146 23.4992 25.5988C22.9381 25.683 22.4692 26.0502 21.5313 26.7845L12.5524 33.8146C10.1859 35.6675 9.00268 36.5939 9.10886 37.7624C9.21504 38.9309 10.5459 39.6287 13.2075 41.0243L45.4725 57.9418C56.3056 63.6219 61.7221 66.4619 65.8283 64.0902C69.9345 61.7185 70.1843 55.6056 70.6838 43.3799L72.1715 6.96699C72.2942 3.96318 72.3556 2.46128 71.3971 1.78504C70.4387 1.10879 69.0451 1.67073 66.258 2.79458L55.6828 7.05876Z"/>
<path d="M129.952 26.2918C129.014 25.5575 128.545 25.1903 127.984 25.1061C127.423 25.0219 126.867 25.2353 125.755 25.662L115.605 29.5569C109.488 31.9038 106.43 33.0773 104.059 31.7076C101.688 30.3379 101.174 27.1017 100.148 20.6293L98.4443 9.88733C98.2577 8.71054 98.1644 8.12215 97.811 7.67818C97.4576 7.23422 96.9053 7.01151 95.8006 6.56609L85.2255 2.30191C82.4383 1.17805 81.0447 0.616115 80.0863 1.29236C79.1279 1.9686 79.1892 3.47051 79.312 6.47432L80.7997 42.8873C81.2992 55.113 81.5489 61.2258 85.6551 63.5975C89.7613 65.9693 95.1778 63.1292 106.011 57.4491L138.276 40.5316C140.938 39.136 142.268 38.4382 142.375 37.2697C142.481 36.1012 141.298 35.1748 138.931 33.322L129.952 26.2918Z"/>
<path d="M1.16548 100.678C0.99874 99.4986 0.915372 98.9087 1.123 98.3805C1.33062 97.8523 1.79331 97.4773 2.71869 96.7272L11.1658 89.8802C16.2554 85.7547 18.8003 83.6919 18.8003 80.9526C18.8003 78.2133 16.2554 76.1505 11.1658 72.0249L2.71868 65.1779C1.79331 64.4279 1.33062 64.0528 1.12299 63.5247C0.915371 62.9965 0.998741 62.4066 1.16548 61.2268L2.76173 49.9325C3.18243 46.9558 3.39279 45.4675 4.4574 44.9752C5.52202 44.4829 6.79147 45.2871 9.33038 46.8953L40.1077 66.3907C50.4413 72.9363 55.608 76.2092 55.608 80.9526C55.608 85.696 50.4413 88.9688 40.1077 95.5145L9.33038 115.01C6.79147 116.618 5.52202 117.422 4.4574 116.93C3.39279 116.438 3.18243 114.949 2.76173 111.973L1.16548 100.678Z"/>
<path d="M129.682 135.284C128.745 136.018 128.276 136.386 127.715 136.47C127.154 136.554 126.598 136.341 125.486 135.914L115.335 132.019C109.219 129.672 106.161 128.499 103.789 129.868C101.418 131.238 100.905 134.474 99.8782 140.947L98.1746 151.689C97.988 152.865 97.8947 153.454 97.5413 153.898C97.1879 154.342 96.6356 154.564 95.5309 155.01L84.9557 159.274C82.1686 160.398 80.775 160.96 79.8166 160.284C78.8581 159.607 78.9195 158.105 79.0422 155.102L80.5299 118.689C81.0295 106.463 81.2792 100.35 85.3854 97.9784C89.4916 95.6067 94.9081 98.4467 105.741 104.127L138.006 121.044C140.668 122.44 141.999 123.138 142.105 124.306C142.211 125.475 141.028 126.401 138.661 128.254L129.682 135.284Z"/>
<path d="M150.168 61.3212C150.335 62.501 150.418 63.0909 150.21 63.619C150.003 64.1472 149.54 64.5222 148.615 65.2723L140.168 72.1193C135.078 76.2448 132.533 78.3076 132.533 81.047C132.533 83.7863 135.078 85.849 140.168 89.9746L148.615 96.8216C149.54 97.5717 150.003 97.9467 150.21 98.4749C150.418 99.003 150.335 99.5929 150.168 100.773L148.572 112.067C148.151 115.044 147.941 116.532 146.876 117.024C145.811 117.517 144.542 116.712 142.003 115.104L111.226 95.6088C100.892 89.0632 95.7253 85.7904 95.7253 81.0469C95.7253 76.3035 100.892 73.0307 111.226 66.4851L142.003 46.9897C144.542 45.3814 145.811 44.5773 146.876 45.0696C147.941 45.5618 148.151 47.0502 148.572 50.0269L150.168 61.3212Z"/>
<path d="M21.3811 135.708C22.3191 136.442 22.788 136.809 23.349 136.893C23.91 136.978 24.4661 136.764 25.5781 136.338L35.7288 132.443C41.8449 130.096 44.903 128.922 47.2743 130.292C49.6456 131.662 50.1589 134.898 51.1854 141.37L52.889 152.112C53.0756 153.289 53.1689 153.877 53.5223 154.321C53.8757 154.765 54.428 154.988 55.5327 155.433L66.1078 159.698C68.895 160.821 70.2886 161.383 71.247 160.707C72.2055 160.031 72.1441 158.529 72.0214 155.525L70.5336 119.112C70.0341 106.887 69.7844 100.774 65.6782 98.402C61.572 96.0303 56.1555 98.8703 45.3224 104.55L13.0574 121.468C10.3957 122.863 9.06491 123.561 8.95873 124.73C8.85255 125.898 10.0358 126.825 12.4022 128.678L21.3811 135.708Z"/>
</mask>
<path d="M55.6828 7.05876C54.5782 7.50419 54.0258 7.7269 53.6724 8.17086C53.319 8.61483 53.2257 9.20322 53.0391 10.38L51.3355 21.122C50.309 27.5944 49.7958 30.8306 47.4244 32.2003C45.0531 33.5699 41.995 32.3965 35.8789 30.0496L25.7282 26.1546C24.6162 25.7279 24.0602 25.5146 23.4992 25.5988C22.9381 25.683 22.4692 26.0502 21.5313 26.7845L12.5524 33.8146C10.1859 35.6675 9.00268 36.5939 9.10886 37.7624C9.21504 38.9309 10.5459 39.6287 13.2075 41.0243L45.4725 57.9418C56.3056 63.6219 61.7221 66.4619 65.8283 64.0902C69.9345 61.7185 70.1843 55.6056 70.6838 43.3799L72.1715 6.96699C72.2942 3.96318 72.3556 2.46128 71.3971 1.78504C70.4387 1.10879 69.0451 1.67073 66.258 2.79458L55.6828 7.05876Z" fill="url(#paint0_linear_41_6)"/>
<path d="M129.952 26.2918C129.014 25.5575 128.545 25.1903 127.984 25.1061C127.423 25.0219 126.867 25.2353 125.755 25.662L115.605 29.5569C109.488 31.9038 106.43 33.0773 104.059 31.7076C101.688 30.3379 101.174 27.1017 100.148 20.6293L98.4443 9.88733C98.2577 8.71054 98.1644 8.12215 97.811 7.67818C97.4576 7.23422 96.9053 7.01151 95.8006 6.56609L85.2255 2.30191C82.4383 1.17805 81.0447 0.616115 80.0863 1.29236C79.1279 1.9686 79.1892 3.47051 79.312 6.47432L80.7997 42.8873C81.2992 55.113 81.5489 61.2258 85.6551 63.5975C89.7613 65.9693 95.1778 63.1292 106.011 57.4491L138.276 40.5316C140.938 39.136 142.268 38.4382 142.375 37.2697C142.481 36.1012 141.298 35.1748 138.931 33.322L129.952 26.2918Z" fill="url(#paint1_linear_41_6)"/>
<path d="M1.16548 100.678C0.99874 99.4986 0.915372 98.9087 1.123 98.3805C1.33062 97.8523 1.79331 97.4773 2.71869 96.7272L11.1658 89.8802C16.2554 85.7547 18.8003 83.6919 18.8003 80.9526C18.8003 78.2133 16.2554 76.1505 11.1658 72.0249L2.71868 65.1779C1.79331 64.4279 1.33062 64.0528 1.12299 63.5247C0.915371 62.9965 0.998741 62.4066 1.16548 61.2268L2.76173 49.9325C3.18243 46.9558 3.39279 45.4675 4.4574 44.9752C5.52202 44.4829 6.79147 45.2871 9.33038 46.8953L40.1077 66.3907C50.4413 72.9363 55.608 76.2092 55.608 80.9526C55.608 85.696 50.4413 88.9688 40.1077 95.5145L9.33038 115.01C6.79147 116.618 5.52202 117.422 4.4574 116.93C3.39279 116.438 3.18243 114.949 2.76173 111.973L1.16548 100.678Z" fill="url(#paint2_linear_41_6)"/>
<path d="M129.682 135.284C128.745 136.018 128.276 136.386 127.715 136.47C127.154 136.554 126.598 136.341 125.486 135.914L115.335 132.019C109.219 129.672 106.161 128.499 103.789 129.868C101.418 131.238 100.905 134.474 99.8782 140.947L98.1746 151.689C97.988 152.865 97.8947 153.454 97.5413 153.898C97.1879 154.342 96.6356 154.564 95.5309 155.01L84.9557 159.274C82.1686 160.398 80.775 160.96 79.8166 160.284C78.8581 159.607 78.9195 158.105 79.0422 155.102L80.5299 118.689C81.0295 106.463 81.2792 100.35 85.3854 97.9784C89.4916 95.6067 94.9081 98.4467 105.741 104.127L138.006 121.044C140.668 122.44 141.999 123.138 142.105 124.306C142.211 125.475 141.028 126.401 138.661 128.254L129.682 135.284Z" fill="url(#paint3_linear_41_6)"/>
<path d="M150.168 61.3212C150.335 62.501 150.418 63.0909 150.21 63.619C150.003 64.1472 149.54 64.5222 148.615 65.2723L140.168 72.1193C135.078 76.2448 132.533 78.3076 132.533 81.047C132.533 83.7863 135.078 85.849 140.168 89.9746L148.615 96.8216C149.54 97.5717 150.003 97.9467 150.21 98.4749C150.418 99.003 150.335 99.5929 150.168 100.773L148.572 112.067C148.151 115.044 147.941 116.532 146.876 117.024C145.811 117.517 144.542 116.712 142.003 115.104L111.226 95.6088C100.892 89.0632 95.7253 85.7904 95.7253 81.0469C95.7253 76.3035 100.892 73.0307 111.226 66.4851L142.003 46.9897C144.542 45.3814 145.811 44.5773 146.876 45.0696C147.941 45.5618 148.151 47.0502 148.572 50.0269L150.168 61.3212Z" fill="url(#paint4_linear_41_6)"/>
<path d="M21.3811 135.708C22.3191 136.442 22.788 136.809 23.349 136.893C23.91 136.978 24.4661 136.764 25.5781 136.338L35.7288 132.443C41.8449 130.096 44.903 128.922 47.2743 130.292C49.6456 131.662 50.1589 134.898 51.1854 141.37L52.889 152.112C53.0756 153.289 53.1689 153.877 53.5223 154.321C53.8757 154.765 54.428 154.988 55.5327 155.433L66.1078 159.698C68.895 160.821 70.2886 161.383 71.247 160.707C72.2055 160.031 72.1441 158.529 72.0214 155.525L70.5336 119.112C70.0341 106.887 69.7844 100.774 65.6782 98.402C61.572 96.0303 56.1555 98.8703 45.3224 104.55L13.0574 121.468C10.3957 122.863 9.06491 123.561 8.95873 124.73C8.85255 125.898 10.0358 126.825 12.4022 128.678L21.3811 135.708Z" fill="url(#paint5_linear_41_6)"/>
<path d="M72.1715 6.96699L71.1723 6.92617V6.92617L72.1715 6.96699ZM66.258 2.79458L66.6319 3.72203V3.72203L66.258 2.79458ZM45.4725 57.9418L45.9369 57.0562V57.0562L45.4725 57.9418ZM70.6838 43.3799L71.683 43.4207V43.4207L70.6838 43.3799ZM12.5524 33.8146L11.9359 33.0273V33.0273L12.5524 33.8146ZM13.2075 41.0243L12.7431 41.9099V41.9099L13.2075 41.0243ZM25.7282 26.1546L26.0864 25.221V25.221L25.7282 26.1546ZM21.5313 26.7845L22.1478 27.5719V27.5719L21.5313 26.7845ZM53.0391 10.38L52.0514 10.2234V10.2234L53.0391 10.38ZM55.6828 7.05876L55.3088 6.13132V6.13132L55.6828 7.05876ZM51.3355 21.122L52.3231 21.2786V21.2786L51.3355 21.122ZM35.8789 30.0496L35.5206 30.9833V30.9833L35.8789 30.0496ZM138.276 40.5316L137.812 39.646V39.646L138.276 40.5316ZM138.931 33.322L138.315 34.1093V34.1093L138.931 33.322ZM80.7997 42.8873L79.8005 42.9281V42.9281L80.7997 42.8873ZM106.011 57.4491L106.475 58.3348V58.3348L106.011 57.4491ZM85.2255 2.30191L84.8515 3.22935V3.22935L85.2255 2.30191ZM79.312 6.47432L80.3111 6.43349V6.43349L79.312 6.47432ZM98.4443 9.88733L97.4567 10.044V10.044L98.4443 9.88733ZM95.8006 6.56609L96.1746 5.63865V5.63865L95.8006 6.56609ZM125.755 25.662L126.114 26.5956V26.5956L125.755 25.662ZM129.952 26.2918L130.569 25.5045V25.5045L129.952 26.2918ZM115.605 29.5569L115.246 28.6233V28.6233L115.605 29.5569ZM100.148 20.6293L101.136 20.4727V20.4727L100.148 20.6293ZM9.33038 115.01L8.79527 114.165V114.165L9.33038 115.01ZM2.76173 111.973L3.75189 111.833V111.833L2.76173 111.973ZM40.1077 66.3907L39.5726 67.2355L40.1077 66.3907ZM40.1077 95.5145L40.6428 96.3592V96.3592L40.1077 95.5145ZM2.76173 49.9325L3.75189 50.0725L2.76173 49.9325ZM9.33038 46.8953L9.86549 46.0505V46.0505L9.33038 46.8953ZM2.71868 65.1779L3.34838 64.4011V64.4011L2.71868 65.1779ZM1.16548 61.2268L0.175321 61.0869V61.0869L1.16548 61.2268ZM2.71869 96.7272L3.34838 97.5041H3.34838L2.71869 96.7272ZM1.16548 100.678L0.175319 100.818V100.818L1.16548 100.678ZM11.1658 89.8802L10.5361 89.1034V89.1034L11.1658 89.8802ZM11.1658 72.0249L10.5361 72.8018V72.8018L11.1658 72.0249ZM138.006 121.044L138.471 120.159L138.006 121.044ZM138.661 128.254L138.045 127.467V127.467L138.661 128.254ZM80.5299 118.689L81.5291 118.729V118.729L80.5299 118.689ZM105.741 104.127L105.277 105.012L105.741 104.127ZM84.9557 159.274L85.3297 160.201V160.201L84.9557 159.274ZM79.0422 155.102L78.043 155.061V155.061L79.0422 155.102ZM98.1746 151.689L97.187 151.532V151.532L98.1746 151.689ZM95.5309 155.01L95.1569 154.082V154.082L95.5309 155.01ZM125.486 135.914L125.127 136.848V136.848L125.486 135.914ZM129.682 135.284L130.299 136.071V136.071L129.682 135.284ZM115.335 132.019L115.693 131.085V131.085L115.335 132.019ZM99.8782 140.947L100.866 141.103V141.103L99.8782 140.947ZM142.003 46.9897L141.468 46.1449V46.1449L142.003 46.9897ZM148.572 50.0269L147.581 50.1668V50.1668L148.572 50.0269ZM111.226 95.6088L110.69 96.4536L111.226 95.6088ZM111.226 66.4851L111.761 67.3299V67.3299L111.226 66.4851ZM148.572 112.067L147.581 111.927V111.927L148.572 112.067ZM142.003 115.104L141.468 115.949V115.949L142.003 115.104ZM148.615 96.8216L147.985 97.5984V97.5984L148.615 96.8216ZM150.168 100.773L151.158 100.913V100.913L150.168 100.773ZM148.615 65.2723L149.244 66.0492V66.0492L148.615 65.2723ZM150.168 61.3212L151.158 61.1813V61.1813L150.168 61.3212ZM140.168 72.1193L139.538 71.3425V71.3425L140.168 72.1193ZM140.168 89.9746L140.797 89.1977V89.1977L140.168 89.9746ZM13.0574 121.468L12.593 120.582H12.593L13.0574 121.468ZM12.4022 128.678L13.0187 127.89H13.0187L12.4022 128.678ZM70.5336 119.112L71.5328 119.071V119.071L70.5336 119.112ZM45.3224 104.55L45.7868 105.436V105.436L45.3224 104.55ZM66.1078 159.698L66.4818 158.77V158.77L66.1078 159.698ZM72.0214 155.525L71.0222 155.566V155.566L72.0214 155.525ZM52.889 152.112L53.8766 151.956V151.956L52.889 152.112ZM55.5327 155.433L55.1587 156.361V156.361L55.5327 155.433ZM25.5781 136.338L25.2198 135.404H25.2198L25.5781 136.338ZM21.3811 135.708L20.7647 136.495H20.7647L21.3811 135.708ZM35.7288 132.443L36.087 133.376H36.087L35.7288 132.443ZM51.1854 141.37L50.1977 141.527V141.527L51.1854 141.37ZM51.3355 21.122L52.3231 21.2786L54.0268 10.5366L53.0391 10.38L52.0514 10.2234L50.3478 20.9653L51.3355 21.122ZM25.7282 26.1546L25.3699 27.0883L35.5206 30.9833L35.8789 30.0496L36.2371 29.116L26.0864 25.221L25.7282 26.1546ZM21.5313 26.7845L20.9148 25.9971L11.9359 33.0273L12.5524 33.8146L13.1689 34.602L22.1478 27.5719L21.5313 26.7845ZM13.2075 41.0243L12.7431 41.9099L45.0082 58.8274L45.4725 57.9418L45.9369 57.0562L13.6719 40.1386L13.2075 41.0243ZM70.6838 43.3799L71.683 43.4207L73.1707 7.00781L72.1715 6.96699L71.1723 6.92617L69.6846 43.3391L70.6838 43.3799ZM66.258 2.79458L65.884 1.86714L55.3088 6.13132L55.6828 7.05876L56.0568 7.98621L66.6319 3.72203L66.258 2.79458ZM72.1715 6.96699L73.1707 7.00781C73.2307 5.53907 73.283 4.32377 73.1841 3.39711C73.0834 2.45283 72.8023 1.55262 71.9737 0.96795L71.3971 1.78504L70.8206 2.60213C70.9504 2.6937 71.1179 2.88256 71.1954 3.60925C71.2748 4.35355 71.2351 5.39111 71.1723 6.92617L72.1715 6.96699ZM66.258 2.79458L66.6319 3.72203C68.0563 3.14768 69.0198 2.76201 69.7472 2.58704C70.4573 2.41623 70.691 2.51065 70.8206 2.60213L71.3971 1.78504L71.9737 0.96795C71.1449 0.383184 70.2026 0.420441 69.2794 0.642508C68.3736 0.860405 67.2468 1.31763 65.884 1.86714L66.258 2.79458ZM45.4725 57.9418L45.0082 58.8274C50.3952 61.652 54.5354 63.8258 57.8437 64.9797C61.1676 66.1389 63.8996 66.3591 66.3285 64.9562L65.8283 64.0902L65.3282 63.2243C63.6509 64.1931 61.6215 64.1791 58.5023 63.0912C55.3675 61.9979 51.383 59.9117 45.9369 57.0562L45.4725 57.9418ZM70.6838 43.3799L69.6846 43.3391C69.4335 49.4852 69.2472 53.9806 68.6262 57.2434C68.0083 60.49 67.0056 62.2554 65.3282 63.2243L65.8283 64.0902L66.3285 64.9562C68.7572 63.5533 69.9325 61.0765 70.5909 57.6173C71.2462 54.1742 71.4346 49.5003 71.683 43.4207L70.6838 43.3799ZM12.5524 33.8146L11.9359 33.0273C10.7788 33.9332 9.8196 34.6809 9.1781 35.3567C8.52432 36.0455 8.02119 36.8429 8.11297 37.8529L9.10886 37.7624L10.1048 37.6719C10.0904 37.5134 10.1258 37.2634 10.6287 36.7336C11.1438 36.1909 11.9595 35.5489 13.1689 34.602L12.5524 33.8146ZM13.2075 41.0243L13.6719 40.1386C12.3116 39.4254 11.3937 38.9411 10.7891 38.5002C10.199 38.0699 10.1192 37.8304 10.1048 37.6719L9.10886 37.7624L8.11297 37.8529C8.20474 38.8629 8.84339 39.5566 9.61064 40.1162C10.3635 40.6652 11.4417 41.2276 12.7431 41.9099L13.2075 41.0243ZM25.7282 26.1546L26.0864 25.221C25.5483 25.0145 25.079 24.8333 24.6733 24.7212C24.2467 24.6034 23.8178 24.5398 23.3507 24.6099L23.4992 25.5988L23.6476 26.5877C23.7415 26.5736 23.8712 26.5746 24.1408 26.649C24.4314 26.7293 24.7961 26.8681 25.3699 27.0883L25.7282 26.1546ZM21.5313 26.7845L22.1478 27.5719C22.6318 27.1929 22.9397 26.9532 23.194 26.7912C23.4299 26.6408 23.5536 26.6018 23.6476 26.5877L23.4992 25.5988L23.3507 24.6099C22.8837 24.68 22.4924 24.8667 22.1191 25.1045C21.7642 25.3307 21.3687 25.6418 20.9148 25.9971L21.5313 26.7845ZM53.0391 10.38L54.0268 10.5366C54.1231 9.92935 54.1853 9.54395 54.2611 9.25203C54.3315 8.98107 54.3955 8.86813 54.4548 8.79365L53.6724 8.17086L52.89 7.54808C52.5959 7.91756 52.4366 8.3208 52.3254 8.74922C52.2195 9.15669 52.1418 9.65388 52.0514 10.2234L53.0391 10.38ZM55.6828 7.05876L55.3088 6.13132C54.7743 6.34687 54.3073 6.53401 53.934 6.72846C53.5414 6.93292 53.1842 7.17858 52.89 7.54808L53.6724 8.17086L54.4548 8.79365C54.5141 8.71919 54.6097 8.63151 54.8579 8.50226C55.1252 8.36301 55.4867 8.21608 56.0568 7.98621L55.6828 7.05876ZM51.3355 21.122L50.3478 20.9653C49.8297 24.2322 49.4558 26.5747 48.9289 28.2794C48.41 29.9582 47.797 30.8303 46.9243 31.3343L47.4244 32.2003L47.9246 33.0662C49.4233 32.2006 50.2525 30.7697 50.8397 28.8699C51.4189 26.996 51.8148 24.4841 52.3231 21.2786L51.3355 21.122ZM35.8789 30.0496L35.5206 30.9833C38.5497 32.1455 40.9221 33.0585 42.834 33.4937C44.7724 33.9349 46.4259 33.9319 47.9246 33.0662L47.4244 32.2003L46.9243 31.3343C46.0517 31.8383 44.9905 31.9334 43.2779 31.5436C41.5389 31.1477 39.3243 30.3006 36.2371 29.116L35.8789 30.0496ZM115.605 29.5569L115.963 30.4906L126.114 26.5956L125.755 25.662L125.397 24.7283L115.246 28.6233L115.605 29.5569ZM98.4443 9.88733L97.4567 10.044L99.1603 20.7859L100.148 20.6293L101.136 20.4727L99.432 9.73069L98.4443 9.88733ZM95.8006 6.56609L96.1746 5.63865L85.5994 1.37446L85.2255 2.30191L84.8515 3.22935L95.4267 7.49353L95.8006 6.56609ZM79.312 6.47432L78.3128 6.51514L79.8005 42.9281L80.7997 42.8873L81.7988 42.8464L80.3111 6.43349L79.312 6.47432ZM106.011 57.4491L106.475 58.3348L138.74 41.4172L138.276 40.5316L137.812 39.646L105.547 56.5635L106.011 57.4491ZM138.931 33.322L139.548 32.5346L130.569 25.5045L129.952 26.2918L129.336 27.0792L138.315 34.1093L138.931 33.322ZM138.276 40.5316L138.74 41.4172C140.042 40.7349 141.12 40.1725 141.873 39.6235C142.64 39.0639 143.279 38.3703 143.37 37.3602L142.375 37.2697L141.379 37.1792C141.364 37.3377 141.284 37.5772 140.694 38.0076C140.09 38.4485 139.172 38.9328 137.812 39.646L138.276 40.5316ZM138.931 33.322L138.315 34.1093C139.524 35.0562 140.34 35.6982 140.855 36.2409C141.358 36.7707 141.393 37.0207 141.379 37.1792L142.375 37.2697L143.37 37.3602C143.462 36.3502 142.959 35.5528 142.305 34.864C141.664 34.1882 140.705 33.4405 139.548 32.5346L138.931 33.322ZM80.7997 42.8873L79.8005 42.9281C80.0489 49.0077 80.2372 53.6815 80.8925 57.1246C81.5509 60.5838 82.7262 63.0606 85.155 64.4635L85.6551 63.5975L86.1553 62.7316C84.4778 61.7627 83.4752 59.9973 82.8573 56.7507C82.2363 53.488 82.0499 48.9926 81.7988 42.8464L80.7997 42.8873ZM106.011 57.4491L105.547 56.5635C100.1 59.419 96.1159 61.5052 92.9811 62.5985C89.8619 63.6864 87.8326 63.7004 86.1553 62.7316L85.6551 63.5975L85.155 64.4635C87.5838 65.8664 90.3159 65.6462 93.6398 64.487C96.948 63.3332 101.088 61.1593 106.475 58.3348L106.011 57.4491ZM85.2255 2.30191L85.5994 1.37446C84.2367 0.824954 83.1098 0.367725 82.204 0.149828C81.2808 -0.0722382 80.3386 -0.109495 79.5098 0.475271L80.0863 1.29236L80.6628 2.10945C80.7924 2.01797 81.0262 1.92356 81.7362 2.09436C82.4636 2.26933 83.4271 2.655 84.8515 3.22935L85.2255 2.30191ZM79.312 6.47432L80.3111 6.43349C80.2484 4.89843 80.2086 3.86087 80.288 3.11657C80.3656 2.38988 80.533 2.20102 80.6628 2.10945L80.0863 1.29236L79.5098 0.475271C78.6811 1.05994 78.4 1.96016 78.2993 2.90443C78.2005 3.8311 78.2528 5.04639 78.3128 6.51514L79.312 6.47432ZM98.4443 9.88733L99.432 9.73069C99.3417 9.1612 99.2639 8.66402 99.1581 8.25655C99.0468 7.82813 98.8875 7.42488 98.5934 7.0554L97.811 7.67818L97.0286 8.30097C97.0879 8.37545 97.1519 8.48838 97.2223 8.75935C97.2981 9.05126 97.3604 9.43667 97.4567 10.044L98.4443 9.88733ZM95.8006 6.56609L95.4267 7.49353C95.9967 7.7234 96.3582 7.87033 96.6256 8.00959C96.8737 8.13883 96.9693 8.22651 97.0286 8.30097L97.811 7.67818L98.5934 7.0554C98.2993 6.6859 97.942 6.44024 97.5495 6.23578C97.1762 6.04133 96.7092 5.8542 96.1746 5.63865L95.8006 6.56609ZM125.755 25.662L126.114 26.5956C126.687 26.3754 127.052 26.2366 127.343 26.1564C127.612 26.0819 127.742 26.0809 127.836 26.095L127.984 25.1061L128.133 24.1172C127.666 24.0471 127.237 24.1107 126.81 24.2285C126.404 24.3406 125.935 24.5218 125.397 24.7283L125.755 25.662ZM129.952 26.2918L130.569 25.5045C130.115 25.1491 129.719 24.8381 129.364 24.6118C128.991 24.374 128.6 24.1873 128.133 24.1172L127.984 25.1061L127.836 26.095C127.93 26.1091 128.054 26.1481 128.289 26.2985C128.544 26.4605 128.852 26.7002 129.336 27.0792L129.952 26.2918ZM115.605 29.5569L115.246 28.6233C112.159 29.8079 109.945 30.6551 108.206 31.0509C106.493 31.4407 105.432 31.3457 104.559 30.8417L104.059 31.7076L103.559 32.5735C105.058 33.4392 106.711 33.4422 108.649 33.001C110.561 32.5658 112.934 31.6529 115.963 30.4906L115.605 29.5569ZM100.148 20.6293L99.1603 20.7859C99.6687 23.9914 100.065 26.5033 100.644 28.3773C101.231 30.2771 102.06 31.7079 103.559 32.5735L104.059 31.7076L104.559 30.8417C103.687 30.3376 103.073 29.4655 102.555 27.7867C102.028 26.082 101.654 23.7396 101.136 20.4727L100.148 20.6293ZM11.1658 89.8802L10.5361 89.1034L2.08899 95.9504L2.71869 96.7272L3.34838 97.5041L11.7955 90.6571L11.1658 89.8802ZM2.71868 65.1779L2.08899 65.9548L10.5361 72.8018L11.1658 72.0249L11.7955 71.2481L3.34838 64.4011L2.71868 65.1779ZM1.16548 61.2268L2.15564 61.3668L3.75189 50.0725L2.76173 49.9325L1.77157 49.7926L0.175321 61.0869L1.16548 61.2268ZM9.33038 46.8953L8.79527 47.7401L39.5726 67.2355L40.1077 66.3907L40.6428 65.5459L9.86549 46.0505L9.33038 46.8953ZM40.1077 95.5145L39.5726 94.6697L8.79527 114.165L9.33038 115.01L9.86549 115.855L40.6428 96.3592L40.1077 95.5145ZM2.76173 111.973L3.75189 111.833L2.15564 100.538L1.16548 100.678L0.175319 100.818L1.77157 112.113L2.76173 111.973ZM9.33038 115.01L8.79527 114.165C7.49776 114.987 6.61953 115.54 5.93561 115.843C5.26795 116.14 5.02105 116.089 4.87709 116.022L4.4574 116.93L4.03771 117.838C4.95837 118.263 5.87851 118.057 6.74645 117.672C7.59814 117.294 8.62409 116.641 9.86549 115.855L9.33038 115.01ZM2.76173 111.973L1.77157 112.113C1.97728 113.568 2.14489 114.773 2.40915 115.667C2.67842 116.577 3.11717 117.412 4.03771 117.838L4.4574 116.93L4.87709 116.022C4.73302 115.956 4.53428 115.8 4.32705 115.099C4.1148 114.382 3.96689 113.354 3.75189 111.833L2.76173 111.973ZM40.1077 66.3907L39.5726 67.2355C44.7675 70.5261 48.5658 72.9352 51.0796 75.1046C53.5809 77.2631 54.608 79.0145 54.608 80.9526H55.608H56.608C56.608 78.1472 55.0517 75.8905 52.3863 73.5904C49.7333 71.301 45.7814 68.8009 40.6428 65.5459L40.1077 66.3907ZM40.1077 95.5145L40.6428 96.3592C45.7814 93.1043 49.7333 90.6041 52.3863 88.3148C55.0517 86.0146 56.608 83.7579 56.608 80.9526H55.608H54.608C54.608 82.8907 53.5809 84.6421 51.0796 86.8006C48.5658 88.9699 44.7675 91.379 39.5726 94.6697L40.1077 95.5145ZM2.76173 49.9325L3.75189 50.0725C3.96689 48.5513 4.1148 47.5235 4.32705 46.8058C4.53428 46.105 4.73302 45.9495 4.87709 45.8829L4.4574 44.9752L4.03771 44.0675C3.11717 44.4932 2.67842 45.328 2.40915 46.2386C2.14489 47.1323 1.97728 48.3371 1.77157 49.7926L2.76173 49.9325ZM9.33038 46.8953L9.86549 46.0505C8.62409 45.2642 7.59814 44.6112 6.74645 44.2334C5.8785 43.8485 4.95837 43.6418 4.03771 44.0675L4.4574 44.9752L4.87709 45.8829C5.02105 45.8163 5.26795 45.7656 5.93561 46.0617C6.61953 46.365 7.49776 46.9182 8.79527 47.7401L9.33038 46.8953ZM2.71868 65.1779L3.34838 64.4011C2.87082 64.014 2.56833 63.7674 2.35357 63.5558C2.15425 63.3594 2.08851 63.2474 2.05367 63.1588L1.12299 63.5247L0.192322 63.8905C0.365099 64.33 0.634518 64.6697 0.949792 64.9804C1.24963 65.2758 1.64118 65.5918 2.08899 65.9548L2.71868 65.1779ZM1.16548 61.2268L0.175321 61.0869C0.094629 61.6578 0.023131 62.156 0.00479978 62.5766C-0.0144742 63.0188 0.0195518 63.451 0.192322 63.8905L1.12299 63.5247L2.05367 63.1588C2.01881 63.0701 1.99071 62.9433 2.0029 62.6636C2.01604 62.3623 2.06959 61.9756 2.15564 61.3668L1.16548 61.2268ZM2.71869 96.7272L2.08899 95.9504C1.64118 96.3134 1.24963 96.6293 0.949791 96.9248C0.634517 97.2355 0.3651 97.5751 0.192323 98.0147L1.123 98.3805L2.05367 98.7464C2.08852 98.6577 2.15425 98.5458 2.35357 98.3494C2.56833 98.1377 2.87082 97.8912 3.34838 97.5041L2.71869 96.7272ZM1.16548 100.678L2.15564 100.538C2.06959 99.9296 2.01604 99.5428 2.0029 99.2415C1.99071 98.9618 2.01881 98.835 2.05367 98.7464L1.123 98.3805L0.192323 98.0147C0.019554 98.4542 -0.0144734 98.8864 0.00479954 99.3286C0.0231299 99.7492 0.0946271 100.247 0.175319 100.818L1.16548 100.678ZM11.1658 89.8802L11.7955 90.6571C14.3161 88.6139 16.2927 87.0149 17.6253 85.5761C18.9764 84.1174 19.8003 82.6835 19.8003 80.9526H18.8003H17.8003C17.8003 81.961 17.3517 82.9282 16.158 84.2171C14.9458 85.5258 13.1051 87.021 10.5361 89.1034L11.1658 89.8802ZM11.1658 72.0249L10.5361 72.8018C13.1051 74.8841 14.9458 76.3793 16.158 77.6881C17.3517 78.977 17.8003 79.9442 17.8003 80.9526H18.8003H19.8003C19.8003 79.2216 18.9764 77.7878 17.6253 76.3291C16.2927 74.8903 14.3161 73.2913 11.7955 71.2481L11.1658 72.0249ZM115.335 132.019L114.977 132.953L125.127 136.848L125.486 135.914L125.844 134.98L115.693 131.085L115.335 132.019ZM98.1746 151.689L99.1623 151.845L100.866 141.103L99.8782 140.947L98.8906 140.79L97.187 151.532L98.1746 151.689ZM95.5309 155.01L95.1569 154.082L84.5818 158.347L84.9557 159.274L85.3297 160.201L95.9049 155.937L95.5309 155.01ZM79.0422 155.102L80.0414 155.142L81.5291 118.729L80.5299 118.689L79.5308 118.648L78.043 155.061L79.0422 155.102ZM105.741 104.127L105.277 105.012L137.542 121.93L138.006 121.044L138.471 120.159L106.206 103.241L105.741 104.127ZM138.661 128.254L138.045 127.467L129.066 134.497L129.682 135.284L130.299 136.071L139.278 129.041L138.661 128.254ZM138.006 121.044L137.542 121.93C138.902 122.643 139.82 123.127 140.425 123.568C141.015 123.999 141.095 124.238 141.109 124.397L142.105 124.306L143.101 124.216C143.009 123.206 142.37 122.512 141.603 121.952C140.85 121.403 139.772 120.841 138.471 120.159L138.006 121.044ZM138.661 128.254L139.278 129.041C140.435 128.135 141.394 127.388 142.036 126.712C142.689 126.023 143.193 125.226 143.101 124.216L142.105 124.306L141.109 124.397C141.123 124.555 141.088 124.805 140.585 125.335C140.07 125.878 139.254 126.52 138.045 127.467L138.661 128.254ZM80.5299 118.689L81.5291 118.729C81.7802 112.583 81.9665 108.088 82.5875 104.825C83.2054 101.579 84.2081 99.8132 85.8856 98.8443L85.3854 97.9784L84.8852 97.1125C82.4565 98.5153 81.2812 100.992 80.6228 104.451C79.9675 107.894 79.7792 112.568 79.5308 118.648L80.5299 118.689ZM105.741 104.127L106.206 103.241C100.819 100.417 96.6783 98.2428 93.37 97.089C90.0462 95.9297 87.3141 95.7096 84.8852 97.1125L85.3854 97.9784L85.8856 98.8443C87.5629 97.8755 89.5922 97.8895 92.7114 98.9774C95.8462 100.071 99.8307 102.157 105.277 105.012L105.741 104.127ZM84.9557 159.274L84.5818 158.347C83.1574 158.921 82.1939 159.307 81.4665 159.482C80.7565 159.652 80.5227 159.558 80.3931 159.466L79.8166 160.284L79.2401 161.101C80.0688 161.685 81.0111 161.648 81.9343 161.426C82.8401 161.208 83.9669 160.751 85.3297 160.201L84.9557 159.274ZM79.0422 155.102L78.043 155.061C77.983 156.53 77.9307 157.745 78.0296 158.672C78.1303 159.616 78.4114 160.516 79.2401 161.101L79.8166 160.284L80.3931 159.466C80.2633 159.375 80.0958 159.186 80.0183 158.459C79.9389 157.715 79.9787 156.677 80.0414 155.142L79.0422 155.102ZM98.1746 151.689L97.187 151.532C97.0906 152.139 97.0284 152.525 96.9526 152.817C96.8822 153.088 96.8182 153.2 96.7589 153.275L97.5413 153.898L98.3237 154.521C98.6178 154.151 98.7771 153.748 98.8884 153.319C98.9942 152.912 99.072 152.415 99.1623 151.845L98.1746 151.689ZM95.5309 155.01L95.9049 155.937C96.4394 155.722 96.9064 155.535 97.2797 155.34C97.6723 155.136 98.0295 154.89 98.3237 154.521L97.5413 153.898L96.7589 153.275C96.6996 153.349 96.604 153.437 96.3559 153.566C96.0885 153.706 95.727 153.853 95.1569 154.082L95.5309 155.01ZM125.486 135.914L125.127 136.848C125.665 137.054 126.135 137.235 126.54 137.347C126.967 137.465 127.396 137.529 127.863 137.459L127.715 136.47L127.566 135.481C127.472 135.495 127.343 135.494 127.073 135.42C126.782 135.339 126.418 135.201 125.844 134.98L125.486 135.914ZM129.682 135.284L129.066 134.497C128.582 134.876 128.274 135.115 128.02 135.277C127.784 135.428 127.66 135.467 127.566 135.481L127.715 136.47L127.863 137.459C128.33 137.389 128.721 137.202 129.095 136.964C129.45 136.738 129.845 136.427 130.299 136.071L129.682 135.284ZM115.335 132.019L115.693 131.085C112.664 129.923 110.292 129.01 108.38 128.575C106.441 128.134 104.788 128.137 103.289 129.002L103.789 129.868L104.289 130.734C105.162 130.23 106.223 130.135 107.936 130.525C109.675 130.921 111.889 131.768 114.977 132.953L115.335 132.019ZM99.8782 140.947L100.866 141.103C101.384 137.836 101.758 135.494 102.285 133.789C102.804 132.11 103.417 131.238 104.289 130.734L103.789 129.868L103.289 129.002C101.79 129.868 100.961 131.299 100.374 133.199C99.7948 135.073 99.3989 137.584 98.8906 140.79L99.8782 140.947ZM140.168 72.1193L140.797 72.8961L149.244 66.0492L148.615 65.2723L147.985 64.4955L139.538 71.3425L140.168 72.1193ZM148.615 96.8216L149.244 96.0447L140.797 89.1977L140.168 89.9746L139.538 90.7514L147.985 97.5984L148.615 96.8216ZM150.168 100.773L149.178 100.633L147.581 111.927L148.572 112.067L149.562 112.207L151.158 100.913L150.168 100.773ZM142.003 115.104L142.538 114.259L111.761 94.764L111.226 95.6088L110.69 96.4536L141.468 115.949L142.003 115.104ZM111.226 66.4851L111.761 67.3299L142.538 47.8344L142.003 46.9897L141.468 46.1449L110.69 65.6403L111.226 66.4851ZM148.572 50.0269L147.581 50.1668L149.178 61.4611L150.168 61.3212L151.158 61.1813L149.562 49.887L148.572 50.0269ZM142.003 46.9897L142.538 47.8344C143.836 47.0125 144.714 46.4594 145.398 46.1561C146.065 45.86 146.312 45.9107 146.456 45.9772L146.876 45.0696L147.296 44.1619C146.375 43.7362 145.455 43.9429 144.587 44.3278C143.735 44.7055 142.709 45.3585 141.468 46.1449L142.003 46.9897ZM148.572 50.0269L149.562 49.887C149.356 48.4315 149.188 47.2267 148.924 46.333C148.655 45.4224 148.216 44.5875 147.296 44.1619L146.876 45.0696L146.456 45.9772C146.6 46.0439 146.799 46.1993 147.006 46.9001C147.219 47.6179 147.366 48.6456 147.581 50.1668L148.572 50.0269ZM111.226 95.6088L111.761 94.764C106.566 91.4734 102.768 89.0643 100.254 86.895C97.7524 84.7365 96.7253 82.985 96.7253 81.0469H95.7253H94.7253C94.7253 83.8523 96.2816 86.109 98.947 88.4091C101.6 90.6985 105.552 93.1986 110.69 96.4536L111.226 95.6088ZM111.226 66.4851L110.69 65.6403C105.552 68.8953 101.6 71.3954 98.947 73.6848C96.2816 75.9849 94.7253 78.2416 94.7253 81.0469H95.7253H96.7253C96.7253 79.1088 97.7524 77.3574 100.254 75.1989C102.768 73.0296 106.566 70.6205 111.761 67.3299L111.226 66.4851ZM148.572 112.067L147.581 111.927C147.366 113.448 147.219 114.476 147.006 115.194C146.799 115.895 146.6 116.05 146.456 116.117L146.876 117.024L147.296 117.932C148.216 117.506 148.655 116.672 148.924 115.761C149.188 114.867 149.356 113.662 149.562 112.207L148.572 112.067ZM142.003 115.104L141.468 115.949C142.709 116.735 143.735 117.388 144.587 117.766C145.455 118.151 146.375 118.358 147.296 117.932L146.876 117.024L146.456 116.117C146.312 116.183 146.065 116.234 145.398 115.938C144.714 115.635 143.836 115.081 142.538 114.259L142.003 115.104ZM148.615 96.8216L147.985 97.5984C148.462 97.9855 148.765 98.2321 148.98 98.4437C149.179 98.6402 149.245 98.7521 149.28 98.8407L150.21 98.4749L151.141 98.109C150.968 97.6695 150.699 97.3298 150.384 97.0192C150.084 96.7237 149.692 96.4077 149.244 96.0447L148.615 96.8216ZM150.168 100.773L151.158 100.913C151.239 100.342 151.31 99.8436 151.329 99.423C151.348 98.9807 151.314 98.5485 151.141 98.109L150.21 98.4749L149.28 98.8407C149.314 98.9294 149.343 99.0562 149.33 99.3359C149.317 99.6372 149.264 100.024 149.178 100.633L150.168 100.773ZM148.615 65.2723L149.244 66.0492C149.692 65.6862 150.084 65.3702 150.384 65.0747C150.699 64.7641 150.968 64.4244 151.141 63.9849L150.21 63.619L149.28 63.2532C149.245 63.3418 149.179 63.4537 148.98 63.6502C148.765 63.8618 148.462 64.1084 147.985 64.4955L148.615 65.2723ZM150.168 61.3212L149.178 61.4611C149.264 62.07 149.317 62.4567 149.33 62.758C149.343 63.0377 149.314 63.1645 149.28 63.2532L150.21 63.619L151.141 63.9849C151.314 63.5454 151.348 63.1132 151.329 62.6709C151.31 62.2503 151.239 61.7522 151.158 61.1813L150.168 61.3212ZM140.168 72.1193L139.538 71.3425C137.017 73.3856 135.041 74.9846 133.708 76.4234C132.357 77.8822 131.533 79.316 131.533 81.047H132.533H133.533C133.533 80.0386 133.982 79.0713 135.175 77.7825C136.388 76.4737 138.228 74.9785 140.797 72.8961L140.168 72.1193ZM140.168 89.9746L140.797 89.1977C138.228 87.1154 136.388 85.6202 135.175 84.3114C133.982 83.0226 133.533 82.0553 133.533 81.047H132.533H131.533C131.533 82.7779 132.357 84.2117 133.708 85.6705C135.041 87.1093 137.017 88.7083 139.538 90.7514L140.168 89.9746ZM35.7288 132.443L35.3705 131.509L25.2198 135.404L25.5781 136.338L25.9363 137.271L36.087 133.376L35.7288 132.443ZM52.889 152.112L53.8766 151.956L52.173 141.214L51.1854 141.37L50.1977 141.527L51.9013 152.269L52.889 152.112ZM55.5327 155.433L55.1587 156.361L65.7339 160.625L66.1078 159.698L66.4818 158.77L55.9067 154.506L55.5327 155.433ZM72.0214 155.525L73.0205 155.484L71.5328 119.071L70.5336 119.112L69.5345 119.153L71.0222 155.566L72.0214 155.525ZM45.3224 104.55L44.858 103.665L12.593 120.582L13.0574 121.468L13.5217 122.354L45.7868 105.436L45.3224 104.55ZM12.4022 128.678L11.7858 129.465L20.7647 136.495L21.3811 135.708L21.9976 134.92L13.0187 127.89L12.4022 128.678ZM13.0574 121.468L12.593 120.582C11.2916 121.265 10.2133 121.827 9.46051 122.376C8.69326 122.936 8.05461 123.629 7.96283 124.639L8.95873 124.73L9.95463 124.82C9.96903 124.662 10.0489 124.422 10.639 123.992C11.2435 123.551 12.1615 123.067 13.5217 122.354L13.0574 121.468ZM12.4022 128.678L13.0187 127.89C11.8094 126.943 10.9937 126.301 10.4785 125.759C9.97562 125.229 9.94022 124.979 9.95463 124.82L8.95873 124.73L7.96283 124.639C7.87106 125.649 8.37419 126.447 9.02797 127.136C9.66947 127.811 10.6287 128.559 11.7858 129.465L12.4022 128.678ZM70.5336 119.112L71.5328 119.071C71.2844 112.992 71.0961 108.318 70.4408 104.875C69.7824 101.416 68.6071 98.9389 66.1784 97.5361L65.6782 98.402L65.178 99.2679C66.8555 100.237 67.8581 102.002 68.4761 105.249C69.097 108.512 69.2834 113.007 69.5345 119.153L70.5336 119.112ZM45.3224 104.55L45.7868 105.436C51.2328 102.581 55.2174 100.494 58.3522 99.401C61.4714 98.3131 63.5007 98.2991 65.178 99.2679L65.6782 98.402L66.1784 97.5361C63.7495 96.1332 61.0174 96.3533 57.6936 97.5126C54.3853 98.6664 50.245 100.84 44.858 103.665L45.3224 104.55ZM66.1078 159.698L65.7339 160.625C67.0966 161.175 68.2235 161.632 69.1293 161.85C70.0525 162.072 70.9948 162.109 71.8235 161.524L71.247 160.707L70.6705 159.89C70.5409 159.982 70.3071 160.076 69.5971 159.905C68.8697 159.73 67.9062 159.345 66.4818 158.77L66.1078 159.698ZM72.0214 155.525L71.0222 155.566C71.0849 157.101 71.1247 158.139 71.0453 158.883C70.9678 159.61 70.8003 159.799 70.6705 159.89L71.247 160.707L71.8235 161.524C72.6522 160.94 72.9333 160.039 73.034 159.095C73.1328 158.168 73.0805 156.953 73.0205 155.484L72.0214 155.525ZM52.889 152.112L51.9013 152.269C51.9916 152.838 52.0694 153.336 52.1752 153.743C52.2865 154.171 52.4458 154.575 52.7399 154.944L53.5223 154.321L54.3047 153.699C54.2454 153.624 54.1814 153.511 54.111 153.24C54.0352 152.948 53.9729 152.563 53.8766 151.956L52.889 152.112ZM55.5327 155.433L55.9067 154.506C55.3366 154.276 54.9751 154.129 54.7077 153.99C54.4596 153.861 54.364 153.773 54.3047 153.699L53.5223 154.321L52.7399 154.944C53.034 155.314 53.3913 155.559 53.7838 155.764C54.1571 155.958 54.6241 156.145 55.1587 156.361L55.5327 155.433ZM25.5781 136.338L25.2198 135.404C24.6459 135.624 24.2812 135.763 23.9907 135.843C23.721 135.918 23.5914 135.919 23.4974 135.904L23.349 136.893L23.2006 137.882C23.6677 137.952 24.0965 137.889 24.5231 137.771C24.9289 137.659 25.3982 137.478 25.9363 137.271L25.5781 136.338ZM21.3811 135.708L20.7647 136.495C21.2185 136.85 21.614 137.161 21.969 137.388C22.3423 137.626 22.7336 137.812 23.2006 137.882L23.349 136.893L23.4974 135.904C23.4035 135.89 23.2798 135.851 23.0438 135.701C22.7896 135.539 22.4817 135.299 21.9976 134.92L21.3811 135.708ZM35.7288 132.443L36.087 133.376C39.1741 132.192 41.3888 131.344 43.1278 130.949C44.8403 130.559 45.9016 130.654 46.7741 131.158L47.2743 130.292L47.7745 129.426C46.2757 128.56 44.6222 128.557 42.6839 128.999C40.772 129.434 38.3995 130.347 35.3705 131.509L35.7288 132.443ZM51.1854 141.37L52.173 141.214C51.6646 138.008 51.2687 135.496 50.6896 133.622C50.1024 131.722 49.2731 130.292 47.7745 129.426L47.2743 130.292L46.7741 131.158C47.6468 131.662 48.2598 132.534 48.7787 134.213C49.3056 135.918 49.6796 138.26 50.1977 141.527L51.1854 141.37Z" fill="url(#paint6_linear_41_6)" mask="url(#path-1-outside-1_41_6)"/>
<defs>
<linearGradient id="paint0_linear_41_6" x1="1" y1="80.9998" x2="661.293" y2="80.9998" gradientUnits="userSpaceOnUse">
<stop stop-color="#8B5CFF"/>
<stop offset="1" stop-color="#533799"/>
</linearGradient>
<linearGradient id="paint1_linear_41_6" x1="1" y1="80.9998" x2="661.293" y2="80.9998" gradientUnits="userSpaceOnUse">
<stop stop-color="#8B5CFF"/>
<stop offset="1" stop-color="#533799"/>
</linearGradient>
<linearGradient id="paint2_linear_41_6" x1="1" y1="80.9998" x2="661.293" y2="80.9998" gradientUnits="userSpaceOnUse">
<stop stop-color="#8B5CFF"/>
<stop offset="1" stop-color="#533799"/>
</linearGradient>
<linearGradient id="paint3_linear_41_6" x1="1" y1="80.9998" x2="661.293" y2="80.9998" gradientUnits="userSpaceOnUse">
<stop stop-color="#8B5CFF"/>
<stop offset="1" stop-color="#533799"/>
</linearGradient>
<linearGradient id="paint4_linear_41_6" x1="1" y1="80.9998" x2="661.293" y2="80.9998" gradientUnits="userSpaceOnUse">
<stop stop-color="#8B5CFF"/>
<stop offset="1" stop-color="#533799"/>
</linearGradient>
<linearGradient id="paint5_linear_41_6" x1="1" y1="80.9998" x2="661.293" y2="80.9998" gradientUnits="userSpaceOnUse">
<stop stop-color="#8B5CFF"/>
<stop offset="1" stop-color="#533799"/>
</linearGradient>
<linearGradient id="paint6_linear_41_6" x1="1" y1="80.9998" x2="661.293" y2="80.9998" gradientUnits="userSpaceOnUse">
<stop offset="1" stop-color="#8B5CFF" stop-opacity="0.53"/>
</linearGradient>
</defs>
</svg>
