<svg width="543" height="130" viewBox="0 0 543 130" fill="none" xmlns="http://www.w3.org/2000/svg">
<path d="M44.4298 4.92294C43.5323 5.28484 43.0835 5.4658 42.7964 5.82652C42.5092 6.18724 42.4334 6.66531 42.2818 7.62145L40.8976 16.3493C40.0636 21.6081 39.6466 24.2376 37.7199 25.3504C35.7932 26.4633 33.3085 25.5098 28.3391 23.603L20.0917 20.4383C19.1882 20.0916 18.7364 19.9183 18.2806 19.9867C17.8247 20.0551 17.4437 20.3534 16.6817 20.9501L9.38631 26.6621C7.46356 28.1675 6.50218 28.9202 6.58845 29.8697C6.67472 30.8191 7.75601 31.386 9.91859 32.5199L36.134 46.2654C44.9358 50.8805 49.3367 53.188 52.673 51.261C56.0093 49.334 56.2122 44.3673 56.6181 34.4339L57.8269 4.84837C57.9266 2.40778 57.9764 1.18748 57.1977 0.638036C56.419 0.0885873 55.2867 0.545156 53.0221 1.45829L44.4298 4.92294Z" fill="#5A52C7"/>
<path d="M104.774 20.5498C104.012 19.9531 103.631 19.6548 103.175 19.5864C102.719 19.518 102.267 19.6913 101.364 20.038L93.1162 23.2027C88.1468 25.1095 85.6622 26.063 83.7355 24.9501C81.8088 23.8373 81.3917 21.2078 80.5577 15.949L79.1735 7.22115C79.0219 6.26501 78.9461 5.78694 78.659 5.42622C78.3718 5.0655 77.9231 4.88454 77.0255 4.52264L68.4332 1.05799C66.1686 0.144854 65.0364 -0.311714 64.2576 0.237734C63.4789 0.787182 63.5288 2.00748 63.6285 4.44807L64.8372 34.0336C65.2431 43.967 65.446 48.9337 68.7823 50.8607C72.1186 52.7877 76.5195 50.4802 85.3214 45.8651L111.537 32.1196C113.699 30.9857 114.781 30.4188 114.867 29.4694C114.953 28.5199 113.992 27.7672 112.069 26.2618L104.774 20.5498Z" fill="#5A52C7"/>
<path d="M0.134451 80.9888C-0.00102414 80.0303 -0.0687601 79.551 0.0999342 79.1219C0.268628 78.6927 0.644563 78.388 1.39643 77.7786L8.25968 72.2154C12.395 68.8634 14.4627 67.1874 14.4627 64.9617C14.4627 62.736 12.395 61.06 8.25969 57.708L1.39643 52.1448C0.644562 51.5353 0.268627 51.2306 0.0999329 50.8015C-0.0687613 50.3723 -0.00102268 49.8931 0.134453 48.9345L1.43141 39.7579C1.77323 37.3393 1.94414 36.13 2.80914 35.73C3.67414 35.3301 4.70557 35.9834 6.76844 37.2901L31.775 53.1301C40.171 58.4485 44.369 61.1076 44.369 64.9617C44.369 68.8157 40.171 71.4749 31.775 76.7932L6.76843 92.6332C4.70557 93.9399 3.67414 94.5933 2.80914 94.1933C1.94414 93.7933 1.77323 92.584 1.4314 90.1655L0.134451 80.9888Z" fill="#5A52C7"/>
<path d="M104.554 109.106C103.792 109.703 103.411 110.001 102.956 110.069C102.5 110.138 102.048 109.964 101.145 109.618L92.8971 106.453C87.9277 104.546 85.443 103.593 83.5163 104.706C81.5896 105.819 81.1726 108.448 80.3386 113.707L78.9544 122.435C78.8027 123.391 78.7269 123.869 78.4398 124.23C78.1527 124.59 77.7039 124.771 76.8064 125.133L68.2141 128.598C65.9495 129.511 64.8172 129.968 64.0385 129.418C63.2597 128.869 63.3096 127.648 63.4093 125.208L64.6181 95.6222C65.0239 85.6888 65.2269 80.7222 68.5631 78.7951C71.8994 76.8681 76.3004 79.1757 85.1022 83.7907L111.318 97.5362C113.48 98.6701 114.561 99.2371 114.648 100.186C114.734 101.136 113.773 101.889 111.85 103.394L104.554 109.106Z" fill="#5A52C7"/>
<path d="M121.199 49.0112C121.334 49.9697 121.402 50.449 121.233 50.8781C121.065 51.3073 120.689 51.612 119.937 52.2214L113.074 57.7846C108.938 61.1366 106.871 62.8126 106.871 65.0383C106.871 67.2641 108.938 68.94 113.074 72.2921L119.937 77.8552C120.689 78.4647 121.065 78.7694 121.233 79.1985C121.402 79.6277 121.334 80.1069 121.199 81.0655L119.902 90.2421C119.56 92.6607 119.389 93.87 118.524 94.27C117.659 94.6699 116.628 94.0166 114.565 92.7099L89.5583 76.8699C81.1623 71.5515 76.9643 68.8924 76.9643 65.0383C76.9643 61.1843 81.1623 58.5251 89.5583 53.2068L114.565 37.3668C116.628 36.0601 117.659 35.4068 118.524 35.8067C119.389 36.2067 119.56 37.416 119.902 39.8345L121.199 49.0112Z" fill="#5A52C7"/>
<path d="M16.5597 109.45C17.3217 110.047 17.7028 110.345 18.1586 110.414C18.6144 110.482 19.0662 110.309 19.9697 109.962L28.2171 106.797C33.1865 104.89 35.6712 103.937 37.5979 105.05C39.5246 106.163 39.9416 108.792 40.7756 114.051L42.1598 122.779C42.3114 123.735 42.3872 124.213 42.6744 124.574C42.9615 124.935 43.4103 125.115 44.3078 125.477L52.9001 128.942C55.1647 129.855 56.297 130.312 57.0757 129.762C57.8544 129.213 57.8046 127.993 57.7049 125.552L56.4961 95.9664C56.0902 86.033 55.8873 81.0663 52.551 79.1393C49.2148 77.2123 44.8138 79.5198 36.012 84.1349L9.79661 97.8804C7.63403 99.0143 6.55274 99.5812 6.46647 100.531C6.3802 101.48 7.34157 102.233 9.26433 103.738L16.5597 109.45Z" fill="#5A52C7"/>
<path d="M515.386 107C509.188 107 503.719 105.675 498.978 103.024C494.274 100.336 490.578 96.6587 487.89 91.992C485.239 87.288 483.914 81.912 483.914 75.864C483.914 69.256 485.22 63.5067 487.834 58.616C490.447 53.7253 494.05 49.936 498.642 47.248C503.234 44.5227 508.516 43.16 514.49 43.16C520.836 43.16 526.231 44.6533 530.674 47.64C535.116 50.6267 538.402 54.8267 540.53 60.24C542.658 65.6533 543.404 72.0187 542.77 79.336H527.706V73.736C527.706 67.576 526.716 63.152 524.738 60.464C522.796 57.7387 519.604 56.376 515.162 56.376C509.972 56.376 506.146 57.9627 503.682 61.136C501.255 64.272 500.042 68.92 500.042 75.08C500.042 80.7173 501.255 85.0853 503.682 88.184C506.146 91.2453 509.748 92.776 514.49 92.776C517.476 92.776 520.034 92.1227 522.162 90.816C524.29 89.5093 525.914 87.624 527.034 85.16L542.266 89.528C539.988 95.0533 536.386 99.3467 531.458 102.408C526.567 105.469 521.21 107 515.386 107ZM495.338 79.336V68.024H535.434V79.336H495.338Z" fill="#5A52C7"/>
<path d="M447.757 105.32L425.805 44.84H441.037L455.373 86.728L469.709 44.84H484.941L462.989 105.32H447.757Z" fill="#5A52C7"/>
<path d="M404.984 36.44V23H420.216V36.44H404.984ZM404.984 105.32V44.84H420.216V105.32H404.984Z" fill="#5A52C7"/>
<path d="M379.477 105.32V76.76C379.477 75.3787 379.403 73.624 379.253 71.496C379.104 69.3307 378.637 67.1653 377.853 65C377.069 62.8347 375.781 61.024 373.989 59.568C372.235 58.112 369.733 57.384 366.485 57.384C365.179 57.384 363.779 57.5893 362.285 58C360.792 58.4107 359.392 59.2133 358.085 60.408C356.779 61.5653 355.696 63.2827 354.837 65.56C354.016 67.8373 353.605 70.8613 353.605 74.632L344.869 70.488C344.869 65.7093 345.84 61.2293 347.781 57.048C349.723 52.8667 352.635 49.488 356.517 46.912C360.437 44.336 365.365 43.048 371.301 43.048C376.043 43.048 379.907 43.8507 382.893 45.456C385.88 47.0613 388.195 49.096 389.837 51.56C391.517 54.024 392.712 56.6 393.421 59.288C394.131 61.9387 394.56 64.3653 394.709 66.568C394.859 68.7707 394.933 70.376 394.933 71.384V105.32H379.477ZM338.149 105.32V24.68H351.701V66.12H353.605V105.32H338.149Z" fill="#5A52C7"/>
<path d="M303.833 107C297.635 107 292.166 105.675 287.425 103.024C282.721 100.336 279.025 96.6587 276.337 91.992C273.686 87.288 272.361 81.912 272.361 75.864C272.361 69.256 273.667 63.5067 276.281 58.616C278.894 53.7253 282.497 49.936 287.089 47.248C291.681 44.5227 296.963 43.16 302.937 43.16C309.283 43.16 314.678 44.6533 319.121 47.64C323.563 50.6267 326.849 54.8267 328.977 60.24C331.105 65.6533 331.851 72.0187 331.217 79.336H316.153V73.736C316.153 67.576 315.163 63.152 313.185 60.464C311.243 57.7387 308.051 56.376 303.609 56.376C298.419 56.376 294.593 57.9627 292.129 61.136C289.702 64.272 288.489 68.92 288.489 75.08C288.489 80.7173 289.702 85.0853 292.129 88.184C294.593 91.2453 298.195 92.776 302.937 92.776C305.923 92.776 308.481 92.1227 310.609 90.816C312.737 89.5093 314.361 87.624 315.481 85.16L330.713 89.528C328.435 95.0533 324.833 99.3467 319.905 102.408C315.014 105.469 309.657 107 303.833 107ZM283.785 79.336V68.024H323.881V79.336H283.785Z" fill="#5A52C7"/>
<path d="M241.292 107C235.095 107 229.625 105.675 224.884 103.024C220.18 100.336 216.484 96.6587 213.796 91.992C211.145 87.288 209.82 81.912 209.82 75.864C209.82 69.256 211.127 63.5067 213.74 58.616C216.353 53.7253 219.956 49.936 224.548 47.248C229.14 44.5227 234.423 43.16 240.396 43.16C246.743 43.16 252.137 44.6533 256.58 47.64C261.023 50.6267 264.308 54.8267 266.436 60.24C268.564 65.6533 269.311 72.0187 268.676 79.336H253.612V73.736C253.612 67.576 252.623 63.152 250.644 60.464C248.703 57.7387 245.511 56.376 241.068 56.376C235.879 56.376 232.052 57.9627 229.588 61.136C227.161 64.272 225.948 68.92 225.948 75.08C225.948 80.7173 227.161 85.0853 229.588 88.184C232.052 91.2453 235.655 92.776 240.396 92.776C243.383 92.776 245.94 92.1227 248.068 90.816C250.196 89.5093 251.82 87.624 252.94 85.16L268.172 89.528C265.895 95.0533 262.292 99.3467 257.364 102.408C252.473 105.469 247.116 107 241.292 107ZM221.244 79.336V68.024H261.34V79.336H221.244Z" fill="#5A52C7"/>
<path d="M169.64 105.32L145 24.68H160.68L180.84 90.984L201.336 24.68H217.016L192.376 105.32H169.64Z" fill="#5A52C7"/>
</svg>
